<svg width="36" height="36" viewBox="0 0 36 36" fill="none" xmlns="http://www.w3.org/2000/svg">
<rect width="36" height="36" rx="12" fill="black"/>
<path d="M11 13C11 13.5304 10.7893 14.0391 10.4142 14.4142C10.0391 14.7893 9.53043 15 9 15C8.46957 15 7.96086 14.7893 7.58579 14.4142C7.21071 14.0391 7 13.5304 7 13C7 12.4696 7.21071 11.9609 7.58579 11.5858C7.96086 11.2107 8.46957 11 9 11C9.53043 11 10.0391 11.2107 10.4142 11.5858C10.7893 11.9609 11 12.4696 11 13ZM11 13H15M25 13C25 12.4696 25.2107 11.9609 25.5858 11.5858C25.9609 11.2107 26.4696 11 27 11C27.5304 11 28.0391 11.2107 28.4142 11.5858C28.7893 11.9609 29 12.4696 29 13C29 13.5304 28.7893 14.0391 28.4142 14.4142C28.0391 14.7893 27.5304 15 27 15C26.4696 15 25.9609 14.7893 25.5858 14.4142C25.2107 14.0391 25 13.5304 25 13ZM25 13H21M13.5 22.5V24.5C13.5 25.11 13.13 25.64 12.61 25.86C12.4198 25.9521 12.2113 26 12 26H10C9.17 26 8.5 25.33 8.5 24.5V22.5C8.5 21.67 9.17 21 10 21H12C12.83 21 13.5 21.67 13.5 22.5ZM27.5 22.5V24.5C27.5 25.33 26.83 26 26 26H24C23.7887 26 23.5802 25.9521 23.39 25.86C22.87 25.64 22.5 25.11 22.5 24.5V22.5C22.5 21.67 23.17 21 24 21H26C26.83 21 27.5 21.67 27.5 22.5ZM21 11.5V14.5C21 15.32 20.32 16 19.5 16H16.5C15.68 16 15 15.32 15 14.5V11.5C15 10.68 15.68 10 16.5 10H19.5C20.32 10 21 10.68 21 11.5Z" stroke="white" stroke-width="1.5" stroke-miterlimit="10" stroke-linecap="round" stroke-linejoin="round"/>
<path d="M21 13.7305C23.37 14.9305 25 17.5105 25 20.5005C25 20.6705 24.99 20.8305 24.97 21.0005M11.03 21.0005C11.01 20.8305 11 20.6705 11 20.5005C11 17.5105 12.63 14.9305 15 13.7305" stroke="white" stroke-width="1.5" stroke-miterlimit="10" stroke-linecap="round" stroke-linejoin="round"/>
</svg>
